<svg width="36" height="39" viewBox="0 0 36 39" fill="none" xmlns="http://www.w3.org/2000/svg">
<path d="M32.1346 3.83038H27.8942V2.40851C27.8942 2.0314 27.7453 1.66974 27.4802 1.40309C27.2152 1.13644 26.8556 0.986633 26.4808 0.986633C26.1059 0.986633 25.7464 1.13644 25.4813 1.40309C25.2162 1.66974 25.0673 2.0314 25.0673 2.40851V3.83038H10.9327V2.40851C10.9327 2.0314 10.7838 1.66974 10.5187 1.40309C10.2536 1.13644 9.89409 0.986633 9.51922 0.986633C9.14435 0.986633 8.78483 1.13644 8.51975 1.40309C8.25468 1.66974 8.10576 2.0314 8.10576 2.40851V3.83038H3.86538C3.11563 3.83038 2.39659 4.12999 1.86644 4.6633C1.33629 5.1966 1.03845 5.91992 1.03845 6.67413V35.1116C1.03845 35.8658 1.33629 36.5892 1.86644 37.1225C2.39659 37.6558 3.11563 37.9554 3.86538 37.9554H32.1346C32.8844 37.9554 33.6034 37.6558 34.1335 37.1225C34.6637 36.5892 34.9615 35.8658 34.9615 35.1116V6.67413C34.9615 5.91992 34.6637 5.1966 34.1335 4.6633C33.6034 4.12999 32.8844 3.83038 32.1346 3.83038ZM3.86538 6.67413H8.10576V8.09601C8.10576 8.47311 8.25468 8.83477 8.51975 9.10143C8.78483 9.36808 9.14435 9.51788 9.51922 9.51788C9.89409 9.51788 10.2536 9.36808 10.5187 9.10143C10.7838 8.83477 10.9327 8.47311 10.9327 8.09601V6.67413H25.0673V8.09601C25.0673 8.47311 25.2162 8.83477 25.4813 9.10143C25.7464 9.36808 26.1059 9.51788 26.4808 9.51788C26.8556 9.51788 27.2152 9.36808 27.4802 9.10143C27.7453 8.83477 27.8942 8.47311 27.8942 8.09601V6.67413H32.1346V12.3616H3.86538V6.67413ZM32.1346 35.1116H3.86538V15.2054H32.1346V35.1116ZM18 27.2913C18.0021 28.1365 17.7545 28.9633 17.2887 29.6667C16.8229 30.3701 16.1599 30.9184 15.3838 31.2421C14.6076 31.5659 13.7534 31.6504 12.9295 31.4849C12.1056 31.3194 11.3491 30.9115 10.756 30.3128C10.4917 30.0463 10.3432 29.6851 10.3432 29.3086C10.3432 28.9321 10.4917 28.571 10.756 28.3044C10.886 28.1706 11.0413 28.0643 11.2127 27.9917C11.3841 27.9191 11.5683 27.8817 11.7543 27.8817C11.9403 27.8817 12.1244 27.9191 12.2958 27.9917C12.4672 28.0643 12.6225 28.1706 12.7525 28.3044C13.0238 28.5653 13.3843 28.7116 13.7596 28.7132C14.1345 28.7132 14.494 28.5634 14.7591 28.2967C15.0241 28.0301 15.1731 27.6684 15.1731 27.2913C15.1731 26.9142 15.0241 26.5526 14.7591 26.2859C14.494 26.0192 14.1345 25.8694 13.7596 25.8694C13.494 25.8679 13.2342 25.7912 13.0099 25.648C12.7857 25.5047 12.6061 25.3009 12.4917 25.0597C12.3774 24.8185 12.3329 24.5498 12.3634 24.2843C12.3939 24.0189 12.4982 23.7675 12.6642 23.5589L13.6536 22.3148H11.6394C11.2645 22.3148 10.905 22.165 10.6399 21.8983C10.3749 21.6316 10.226 21.27 10.226 20.8929C10.226 20.5158 10.3749 20.1541 10.6399 19.8875C10.905 19.6208 11.2645 19.471 11.6394 19.471H16.5865C16.8521 19.4725 17.112 19.5493 17.3362 19.6925C17.5605 19.8357 17.74 20.0396 17.8544 20.2808C17.9687 20.522 18.0132 20.7907 17.9827 21.0561C17.9522 21.3215 17.848 21.573 17.682 21.7816L16.1272 23.7544C16.7045 24.1434 17.1775 24.6698 17.5042 25.2867C17.8309 25.9037 18.0012 26.5923 18 27.2913ZM25.0673 20.8929V30.1351C25.0673 30.5122 24.9184 30.8738 24.6533 31.1405C24.3882 31.4071 24.0287 31.5569 23.6538 31.5569C23.279 31.5569 22.9194 31.4071 22.6544 31.1405C22.3893 30.8738 22.2404 30.5122 22.2404 30.1351V23.7366L21.675 24.1632C21.3735 24.3849 20.9978 24.4793 20.628 24.4261C20.2583 24.373 19.9239 24.1766 19.6961 23.8788C19.4712 23.5771 19.3746 23.1979 19.4277 22.8246C19.4807 22.4513 19.6789 22.1145 19.9788 21.8882L22.8058 19.7554C23.0158 19.5969 23.2655 19.5005 23.5269 19.4768C23.7883 19.453 24.0512 19.503 24.286 19.6211C24.5207 19.7392 24.7182 19.9207 24.8562 20.1454C24.9942 20.37 25.0673 20.6288 25.0673 20.8929Z" fill="white"/>
</svg>
