<svg width="25" height="25" viewBox="0 0 25 25" fill="none" xmlns="http://www.w3.org/2000/svg">
<path d="M15.6574 22.7678H15.5274C11.0874 22.7678 8.94739 21.0178 8.57739 17.0978C8.53739 16.6878 8.83739 16.3178 9.25739 16.2778C9.65739 16.2378 10.0374 16.5478 10.0774 16.9578C10.3674 20.0978 11.8474 21.2678 15.5374 21.2678H15.6674C19.7374 21.2678 21.1774 19.8278 21.1774 15.7578V9.23781C21.1774 5.16781 19.7374 3.72781 15.6674 3.72781H15.5374C11.8274 3.72781 10.3474 4.91781 10.0774 8.11781C10.0274 8.52781 9.67739 8.83781 9.25739 8.79781C9.15883 8.79011 9.06276 8.76303 8.97469 8.71812C8.88663 8.67321 8.80829 8.61135 8.74419 8.53609C8.68008 8.46084 8.63146 8.37367 8.60112 8.27958C8.57078 8.18549 8.55932 8.08634 8.56738 7.98781C8.90738 4.00781 11.0574 2.22781 15.5274 2.22781H15.6574C20.5674 2.22781 22.6674 4.32781 22.6674 9.23781V15.7578C22.6674 20.6678 20.5674 22.7678 15.6574 22.7678Z" fill="#FB493F"/>
<path d="M15.4174 13.2478H4.03735C3.62735 13.2478 3.28735 12.9078 3.28735 12.4978C3.28735 12.0878 3.62735 11.7478 4.03735 11.7478H15.4174C15.8274 11.7478 16.1674 12.0878 16.1674 12.4978C16.1674 12.9078 15.8274 13.2478 15.4174 13.2478Z" fill="#FB493F"/>
<path d="M6.26738 16.5978C6.07738 16.5978 5.88738 16.5278 5.73738 16.3778L2.38738 13.0278C2.2479 12.8867 2.16968 12.6962 2.16968 12.4978C2.16968 12.2994 2.2479 12.1089 2.38738 11.9678L5.73738 8.6178C6.02738 8.3278 6.50738 8.3278 6.79738 8.6178C7.08738 8.9078 7.08738 9.3878 6.79738 9.6778L3.97738 12.4978L6.79738 15.3178C7.08738 15.6078 7.08738 16.0878 6.79738 16.3778C6.65738 16.5278 6.45738 16.5978 6.26738 16.5978Z" fill="#FB493F"/>
</svg>
