<svg width="148" height="24" viewBox="0 0 148 24" fill="none" xmlns="http://www.w3.org/2000/svg">
<path d="M25.002 16.622C26.2487 17.8687 27.4953 18.492 28.742 18.492C29.3873 18.492 29.9007 18.3453 30.282 18.052C30.678 17.744 30.876 17.3553 30.876 16.886C30.876 16.402 30.6413 15.9987 30.172 15.676C29.7027 15.3387 29.1307 15.0453 28.456 14.796C27.796 14.5467 27.136 14.268 26.476 13.96C25.816 13.6373 25.2513 13.1827 24.782 12.596C24.3127 12.0093 24.078 11.298 24.078 10.462C24.078 9.142 24.628 8.00533 25.728 7.052C26.828 6.084 28.1333 5.6 29.644 5.6C30.3333 5.6 31.0007 5.67333 31.646 5.82C32.2913 5.96667 32.9147 6.17933 33.516 6.458L32.02 9.67C31.6093 9.34733 31.0447 9.054 30.326 8.79C29.622 8.51133 28.9987 8.372 28.456 8.372C27.928 8.372 27.4953 8.504 27.158 8.768C26.8353 9.01733 26.674 9.35467 26.674 9.78C26.674 10.2053 26.9087 10.5867 27.378 10.924C27.8473 11.2467 28.412 11.5327 29.072 11.782C29.7467 12.0313 30.414 12.31 31.074 12.618C31.7487 12.9113 32.3207 13.3513 32.79 13.938C33.2593 14.5247 33.494 15.236 33.494 16.072C33.494 17.4507 32.944 18.6607 31.844 19.702C30.744 20.7287 29.4607 21.242 27.994 21.242C26.894 21.242 25.9187 20.978 25.068 20.45C24.32 19.9953 23.792 19.592 23.484 19.24L23.286 18.998L25.002 16.622ZM40.2685 5.71L39.9605 15.28L40.2245 21H37.1445L37.4085 15.654L37.1445 6.26L40.2685 5.71ZM51.4831 14.136H51.7031L54.9151 5.776L57.9511 5.864L58.0391 15.324L58.4571 21H55.4871L55.5971 15.28L55.3551 9.494L52.7151 16.776L50.0091 16.908L47.5451 9.494L47.3471 15.28L47.5011 21H44.7731L45.0811 15.654L45.2131 6.216L48.7111 5.666L51.4831 14.136ZM67.6327 5.82C69.0407 5.82 70.1627 6.22333 70.9987 7.03C71.8347 7.822 72.2527 8.91467 72.2527 10.308C72.2527 11.7013 71.7247 12.8967 70.6687 13.894C69.6127 14.8767 68.322 15.368 66.7967 15.368H65.5427L65.8067 21H62.8587L63.1227 15.654L62.8587 5.82H67.6327ZM66.8407 8.042H65.7627L65.6087 13.234H67.1047C67.838 13.234 68.4027 12.992 68.7987 12.508C69.2093 12.024 69.4147 11.3347 69.4147 10.44C69.4147 8.84133 68.5567 8.042 66.8407 8.042ZM75.372 21L75.636 15.654L75.372 6.26L78.496 5.71L78.188 15.28L78.342 18.844L82.852 18.492L82.61 21H75.372ZM89.1832 5.71L88.8752 15.28L89.1392 21H86.0592L86.3232 15.654L86.0592 6.26L89.1832 5.71ZM101.74 8.174H97.0539L96.9219 12.222H101.124L100.882 14.554H96.8559L96.8339 15.28L97.0979 21H94.0179L94.2819 15.654L94.0179 5.82H101.982L101.74 8.174ZM109.536 12.31H109.8L111.428 9.318L113.078 5.688L115.762 6.084L113.738 9.758L110.878 15.346L111.12 21H108.04L108.26 15.72L105.488 10.088L103.376 6.238L106.478 5.688L107.908 9.032L109.536 12.31Z" fill="white"/>
<rect width="18" height="15" transform="translate(0 5)" fill="white"/>
<rect y="5" width="18" height="3" fill="#1E1E2D"/>
<rect y="11" width="18" height="3" fill="#1E1E2D"/>
<rect y="17" width="18" height="3" fill="#1E1E2D"/>
</svg>
