<svg width="38" height="39" viewBox="0 0 38 39" fill="none" xmlns="http://www.w3.org/2000/svg">
<path d="M3.99996 7.99998V34.6666H34V38H3.99996C3.1159 38 2.26806 37.6488 1.64294 37.0237C1.01782 36.3985 0.666626 35.5507 0.666626 34.6666V7.99998H3.99996ZM25.6666 13H34.8333L25.6666 3.83331V13ZM10.6666 1.33331H27.3333L37.3333 11.3333V28C37.3333 28.884 36.9821 29.7319 36.357 30.357C35.7319 30.9821 34.884 31.3333 34 31.3333H10.6666C9.78257 31.3333 8.93472 30.9821 8.3096 30.357C7.68448 29.7319 7.33329 28.884 7.33329 28V4.66665C7.33329 3.78259 7.68448 2.93474 8.3096 2.30962C8.93472 1.6845 9.78257 1.33331 10.6666 1.33331ZM10.6666 4.66665V28H34V16.3333H22.3333V4.66665H10.6666Z" fill="white"/>
</svg>
